<?xml version="1.0" standalone="no"?>
<!DOCTYPE svg PUBLIC "-//W3C//DTD SVG 20010904//EN"
 "http://www.w3.org/TR/2001/REC-SVG-20010904/DTD/svg10.dtd">
<svg version="1.0" xmlns="http://www.w3.org/2000/svg"
 width="512.000000pt" height="512.000000pt" viewBox="0 0 512.000000 512.000000"
 preserveAspectRatio="xMidYMid meet">

<g transform="translate(0.000000,512.000000) scale(0.100000,-0.100000)"
fill="#000000" stroke="none">
<path d="M2320 5063 c-574 -59 -1116 -313 -1520 -713 -587 -580 -852 -1409
-711 -2220 156 -892 786 -1636 1641 -1935 875 -305 1844 -108 2523 514 462
422 744 984 807 1605 18 167 8 496 -19 652 -70 414 -229 782 -482 1121 -94
126 -346 378 -472 472 -379 283 -786 445 -1257 501 -78 9 -429 11 -510 3z
m1496 -1187 c25 -70 52 -128 66 -143 16 -16 66 -37 144 -62 108 -34 119 -39
119 -61 0 -21 -11 -27 -120 -63 -66 -21 -130 -48 -142 -60 -15 -13 -36 -63
-59 -136 -56 -183 -73 -183 -128 -7 -25 77 -44 120 -61 136 -16 15 -74 41
-148 65 -102 33 -122 43 -122 60 0 16 20 27 115 61 63 22 123 44 132 48 28 13
48 53 80 159 50 169 66 170 124 3z m-2051 -222 c221 -41 450 -133 660 -268 74
-48 212 -152 425 -321 464 -369 702 -527 895 -596 77 -27 245 -36 353 -19 112
18 281 77 508 178 109 49 201 85 202 80 7 -16 -29 -199 -54 -281 -31 -98 -107
-258 -163 -343 -184 -278 -479 -472 -805 -529 -101 -17 -338 -20 -436 -5 -305
48 -585 164 -895 370 -188 125 -318 236 -576 486 -331 321 -506 424 -750 441
-193 13 -439 -51 -735 -192 l-116 -55 6 48 c11 77 65 241 108 326 172 342 461
577 821 666 167 41 373 46 552 14z m-518 -2267 c81 -89 18 -227 -104 -227
-133 0 -183 180 -70 251 25 16 44 19 86 16 47 -3 59 -9 88 -40z"/>
</g>
</svg>
